<svg xmlns="http://www.w3.org/2000/svg" viewBox="0 0 86.48 44.72"><defs><style>.cls-1{fill:#fff;}</style></defs><g id="レイヤー_2" data-name="レイヤー 2"><g id="図"><path class="cls-1" d="M31.56,2.54C33.85,6,35.35,8.23,35.64,8.7c1,1.76,13.3,9.29,13.43,9.37,6,3.71,12.66,7.57,12.73,7.6l.32.19.36.06c2,.33,11.9,2,13.31,2.06,5.44.32,8.54,3.48,8.69,6.28.16,3-3.07,6.84-12.61,8.46H3.71l-.06,0a.73.73,0,0,1-.54-.42c-1-1.69-.33-6.33.47-9.08l.23-.83-.41-.74S1.33,27.9,2.23,21.25c.51-3.78,2.83-11.7,5.64-14,.49-.41.63-.43.65-.43a7.67,7.67,0,0,1,1.81.64,16.8,16.8,0,0,0,6.17.9A39.22,39.22,0,0,0,28.12,6.47l1.75-.55-.31-1.37a5.61,5.61,0,0,1,1.11-1.24l.89-.77M31.8,0a.89.89,0,0,0-.56.2C30.7.64,30,1.26,29.34,1.82c-2,1.8-1.82,2.74-1.82,2.74a37.06,37.06,0,0,1-11,1.8,15.25,15.25,0,0,1-5.34-.72,7.1,7.1,0,0,0-2.64-.82A3,3,0,0,0,6.6,5.7C3.14,8.54.75,17.23.25,21c-1,7.53,1.41,11.65,1.41,11.65s-3.2,11,1.56,12l.2.06H72c21-3.49,16.25-18,3.87-18.74-1.38-.08-13.1-2-13.1-2s-6.6-3.85-12.7-7.59c-5.77-3.53-12.34-8-12.76-8.69S33.77,2.26,32.52.38A.86.86,0,0,0,31.8,0Z"/></g></g></svg>