<svg xmlns="http://www.w3.org/2000/svg" viewBox="0 0 88.48 46.72"><defs><style>.cls-1{fill:#3b3b3c;stroke:#3b3b3c;stroke-miterlimit:10;stroke-width:2px;}</style></defs><g id="レイヤー_2" data-name="レイヤー 2"><g id="図"><path class="cls-1" d="M73,45.72H4.42l-.2-.06c-4.76-1-1.56-12-1.56-12S.23,29.52,1.25,22C1.75,18.23,4.14,9.54,7.6,6.7,9,5.52,9.72,5.54,12.16,6.64c1.57.71,7.93,1.57,16.36-1.08,0,0-.21-.94,1.82-2.74.63-.56,1.36-1.18,1.9-1.62a.87.87,0,0,1,1.28.18c1.25,1.88,4.36,6.5,4.83,7.29s7,5.16,12.76,8.69C57.21,21.1,63.81,25,63.81,25s11.72,1.95,13.1,2C89.29,27.72,94,42.23,73,45.72Z"/></g></g></svg>