<?xml version="1.0" standalone="no"?>
<!DOCTYPE svg PUBLIC "-//W3C//DTD SVG 20010904//EN"
 "http://www.w3.org/TR/2001/REC-SVG-20010904/DTD/svg10.dtd">
<svg version="1.0" xmlns="http://www.w3.org/2000/svg"
 width="320.000000pt" height="320.000000pt" viewBox="0 0 320.000000 320.000000"
 preserveAspectRatio="xMidYMid meet">
<metadata>
Created by potrace 1.14, written by Peter Selinger 2001-2017
</metadata>
<g transform="translate(0.000000,320.000000) scale(0.100000,-0.100000)"
fill="#000000" stroke="none">
<path d="M750 2954 c0 -9 24 -62 54 -118 29 -55 84 -159 121 -231 37 -71 93
-179 125 -240 138 -264 316 -605 347 -665 18 -35 33 -72 33 -81 0 -21 -25 -28
-62 -18 -117 31 -336 70 -367 64 -83 -16 -126 -86 -101 -167 7 -24 22 -56 33
-73 22 -30 28 -37 112 -135 26 -30 57 -66 69 -80 12 -14 140 -164 286 -335
145 -171 294 -344 330 -386 36 -41 85 -99 110 -129 79 -95 138 -155 144 -149
4 4 -69 159 -162 345 -305 612 -322 647 -322 670 0 12 6 24 13 27 6 2 64 -7
127 -20 165 -34 158 -32 240 -45 67 -10 79 -9 114 7 81 39 99 125 44 213 -25
38 -810 1007 -873 1076 -6 6 -49 58 -95 116 -83 102 -100 122 -137 166 -10 12
-51 63 -92 113 -75 92 -91 105 -91 75z"/>
<path d="M2155 2366 c-7 -17 -27 -71 -45 -121 -18 -49 -36 -99 -40 -110 -5
-11 -22 -58 -39 -105 -32 -90 -93 -257 -110 -301 -9 -25 -1 -36 96 -154 l106
-128 18 49 c92 251 124 339 169 464 29 80 65 179 80 220 71 188 78 210 72 214
-4 2 -72 3 -151 3 l-143 0 -13 -31z"/>
</g>
</svg>
