<svg xmlns="http://www.w3.org/2000/svg" viewBox="0 0 92.63 106.69"><defs><style>.cls-1{fill:#fff;}</style></defs><g id="レイヤー_2" data-name="レイヤー 2"><g id="図"><path class="cls-1" d="M11.58,60.79A34.61,34.61,0,0,1,21.77,36.24L13.55,28a46.3,46.3,0,0,0,27,78.67V95A34.77,34.77,0,0,1,11.58,60.79Zm81.05,0A46.31,46.31,0,0,0,46.31,14.47c-.34,0-.69.06-1,.06l6.31-6.31L43.42,0,23.16,20.26,43.42,40.52l8.16-8.16-6.25-6.25c.35,0,.69-.06,1-.06A34.72,34.72,0,0,1,52.1,95v11.69A46.24,46.24,0,0,0,92.63,60.79Z"/></g></g></svg>