<svg xmlns="http://www.w3.org/2000/svg" viewBox="0 0 318.16 135.14"><defs><style>.cls-1{fill:#fff;}.cls-2{fill:none;}</style></defs><g id="レイヤー_2" data-name="レイヤー 2"><g id="レイヤー_2-2" data-name="レイヤー 2"><polygon class="cls-1" points="275.81 79.48 226.97 79.48 226.98 79.46 226.95 79.46 244.73 30.63 244.74 30.65 254.09 45.34 247.03 64.74 266.43 64.74 275.81 79.48"/><polygon class="cls-1" points="260.34 28.16 255.9 40.37 248.13 28.16 260.34 28.16"/><polygon class="cls-1" points="296.96 28.16 279.18 76.98 279.17 76.96 271.39 64.74 271.29 64.57 269.82 62.26 282.23 28.16 296.96 28.16"/><path class="cls-1" d="M72.59,72.41l1.78,2L91.2,28.16H76.48L64.14,62.07Z"/><path class="cls-1" d="M41.48,41.17,8,.24A.62.62,0,0,0,7,.91c8.21,16,33.3,63.87,33.44,64.16.55,1.12.18,2.74-2.07,2.26-.24,0-14.83-3.2-15.89-3.38-7.18-1.25-11.58,5.67-5.32,13l49.59,58a.5.5,0,0,0,.83-.53L44.14,87.31h0c-1.32-2.74,0-3.63,1.7-3.36.18,0,16.48,3.41,17.59,3.6,6,1,11.78-5,5.81-12.42Z"/><polygon class="cls-1" points="138.64 79.52 89.81 79.52 89.82 79.49 89.79 79.49 107.56 30.66 107.58 30.68 115.35 42.9 115.46 43.07 116.93 45.38 109.87 64.77 129.26 64.77 138.62 79.49 138.64 79.52"/><polygon class="cls-1" points="159.8 28.19 142.03 77.02 134.24 64.77 134.13 64.6 132.66 62.29 139.72 42.9 120.33 42.9 118.85 40.58 118.74 40.4 110.95 28.16 159.78 28.16 159.77 28.19 159.8 28.19"/><polygon class="cls-1" points="207.23 79.52 158.39 79.52 158.4 79.49 158.38 79.49 176.16 30.66 176.17 30.68 185.51 45.37 178.46 64.77 197.85 64.77 199.33 67.08 199.44 67.26 207.23 79.52"/><polygon class="cls-1" points="228.37 28.16 223 42.9 188.91 42.9 187.44 40.59 179.53 28.16 228.37 28.16"/><polygon class="cls-1" points="219.76 51.88 210.61 77.02 210.6 76.99 202.82 64.77 202.71 64.6 201.25 62.29 201.13 62.12 194.62 51.88 219.76 51.88"/><rect class="cls-2" y="28.19" width="318.16" height="51.33"/></g></g></svg>